<svg width="132" height="29" viewBox="0 0 132 29" fill="none" xmlns="http://www.w3.org/2000/svg">
<g clip-path="url(#clip0_1_3458)">
<path d="M4.00618 10.561C3.76653 11.431 3.64338 12.3286 3.63992 13.2307C3.63992 13.2941 3.63992 13.356 3.63992 13.418C3.64751 14.5082 3.52456 15.5955 3.27366 16.6568C2.76822 16.4783 2.24813 16.1169 1.75148 15.491C0.444665 13.8442 0.87905 11.2036 2.49059 10.5821C3.10005 10.3475 3.60988 10.397 4.00837 10.5508C4.00731 10.5541 4.00658 10.5575 4.00618 10.561Z" fill="#A16552"/>
<path d="M4.00618 10.561C3.76653 11.431 3.64338 12.3286 3.63992 13.2307C3.63992 13.2941 3.63992 13.356 3.63992 13.418C3.64751 14.5082 3.52456 15.5955 3.27366 16.6568C2.76822 16.4783 2.24813 16.1169 1.75148 15.491C0.444665 13.8442 0.87905 11.2036 2.49059 10.5821C3.10005 10.3475 3.60988 10.397 4.00837 10.5508C4.00731 10.5541 4.00658 10.5575 4.00618 10.561Z" fill="#F5DCB4"/>
<path d="M28.085 15.4916C27.5891 16.1161 27.0683 16.4775 26.5628 16.6575C26.3123 15.5963 26.1893 14.5094 26.1966 13.4194C26.1966 13.3574 26.1966 13.2955 26.1966 13.2321C26.1932 12.3264 26.0688 11.4252 25.8267 10.5522C26.2252 10.3984 26.735 10.3489 27.3444 10.5835C28.956 11.2036 29.3911 13.8442 28.085 15.4916Z" fill="#A16552"/>
<path d="M28.085 15.4916C27.5891 16.1161 27.0683 16.4775 26.5628 16.6575C26.3123 15.5963 26.1893 14.5094 26.1966 13.4194C26.1966 13.3574 26.1966 13.2955 26.1966 13.2321C26.1932 12.3264 26.0688 11.4252 25.8267 10.5522C26.2252 10.3984 26.735 10.3489 27.3444 10.5835C28.956 11.2036 29.3911 13.8442 28.085 15.4916Z" fill="#F5DCB4"/>
<path d="M23.0634 16.6903C22.8259 17.0551 22.6738 17.4682 22.6182 17.8993C22.5627 18.3303 22.6052 18.7683 22.7425 19.1808C22.9571 19.8089 23.1491 20.5201 23.1491 21.049C23.1476 24.9196 19.4638 28.0528 14.9177 28.0528C10.3717 28.0528 6.68569 24.9196 6.68569 21.049C6.68569 20.5201 6.87761 19.8104 7.09224 19.1808C7.22973 18.7684 7.27234 18.3306 7.21694 17.8997C7.16153 17.4688 7.00952 17.0557 6.77213 16.691C6.30892 15.9698 6.06194 15.1322 6.06012 14.2763C6.06012 11.7078 8.25768 9.62465 10.9717 9.62465C11.8478 9.62249 12.7096 9.8459 13.4732 10.2731C13.9135 10.5223 14.4113 10.6533 14.9177 10.6533C15.4242 10.6533 15.922 10.5223 16.3623 10.2731C17.1257 9.84603 17.9872 9.62286 18.8631 9.62538C21.5734 9.62538 23.7754 11.7086 23.7754 14.277C23.7761 14.9187 23.6369 15.5529 23.3674 16.1358C23.2792 16.3275 23.1777 16.5128 23.0634 16.6903Z" fill="#A16552"/>
<path d="M23.0634 16.6903C22.8259 17.0551 22.6738 17.4682 22.6182 17.8993C22.5627 18.3303 22.6052 18.7683 22.7425 19.1808C22.9571 19.8089 23.1491 20.5201 23.1491 21.049C23.1476 24.9196 19.4638 28.0528 14.9177 28.0528C10.3717 28.0528 6.68569 24.9196 6.68569 21.049C6.68569 20.5201 6.87761 19.8104 7.09224 19.1808C7.22973 18.7684 7.27234 18.3306 7.21694 17.8997C7.16153 17.4688 7.00952 17.0557 6.77213 16.691C6.30892 15.9698 6.06194 15.1322 6.06012 14.2763C6.06012 11.7078 8.25768 9.62465 10.9717 9.62465C11.8478 9.62249 12.7096 9.8459 13.4732 10.2731C13.9135 10.5223 14.4113 10.6533 14.9177 10.6533C15.4242 10.6533 15.922 10.5223 16.3623 10.2731C17.1257 9.84603 17.9872 9.62286 18.8631 9.62538C21.5734 9.62538 23.7754 11.7086 23.7754 14.277C23.7761 14.9187 23.6369 15.5529 23.3674 16.1358C23.2792 16.3275 23.1777 16.5128 23.0634 16.6903Z" fill="#F5DCB4"/>
<path d="M10.725 21.9147C10.6577 21.9145 10.5911 21.9287 10.5297 21.9562C10.4683 21.9837 10.4136 22.024 10.3691 22.0743C10.3247 22.1246 10.2915 22.1838 10.2719 22.2479C10.2523 22.3119 10.2467 22.3794 10.2555 22.4459C10.5485 24.5188 12.5263 26.1218 14.918 26.1218C17.3096 26.1218 19.2889 24.5188 19.5805 22.4459C19.5892 22.3795 19.5836 22.3121 19.5641 22.248C19.5445 22.184 19.5115 22.1249 19.4671 22.0746C19.4227 22.0243 19.368 21.984 19.3067 21.9564C19.2454 21.9289 19.1789 21.9146 19.1116 21.9147H10.725Z" fill="#4E3F3F"/>
<path d="M12.2095 25.3503C13.0218 25.8545 13.9601 26.1219 14.9176 26.1219C15.8751 26.1219 16.8134 25.8545 17.6257 25.3503C17.2858 24.1801 16.1995 24.4497 14.9154 24.4497C13.6313 24.4497 12.5494 24.1801 12.2095 25.3503Z" fill="#E6646E"/>
<path d="M27.9018 9.71719C26.9275 9.34121 26.1547 9.5394 25.6112 9.85053C25.4785 9.46184 25.3257 9.08025 25.1534 8.70729C25.0274 8.43429 24.8914 8.16493 24.7453 7.89922C23.2547 5.18648 20.748 2.93497 17.8736 1.98337L17.815 0.443015L15.9529 1.55492L15.7288 1.53015C15.591 1.51776 15.4548 1.50829 15.3156 1.50246L15.0439 0.336633L14.964 0C14.871 0 14.7801 0 14.6915 0.010201C12.9591 0.1501 12.0969 1.71595 11.9621 1.9841C9.08335 2.9357 6.58106 5.18794 5.09038 7.89922C4.94388 8.16445 4.80788 8.4338 4.68237 8.70729C4.51023 9.08043 4.35718 9.462 4.22381 9.85053L4.15422 9.81191C3.61509 9.5241 2.86646 9.35797 1.93396 9.71719C-0.113433 10.507 -0.665753 13.8632 0.993404 15.9573C1.67025 16.8083 2.38519 17.2747 3.0679 17.4823C3.05911 17.5202 3.05032 17.5588 3.04226 17.5975C2.91882 18.1597 2.85669 18.7336 2.85693 19.309C2.85693 23.3042 5.81924 26.7412 10.0635 28.2517C11.0599 28.6061 12.0935 28.8474 13.1444 28.9709C13.69 29.0352 14.2388 29.0693 14.7882 29.0729H14.9186C21.5794 29.0729 26.9788 24.701 26.9788 19.309C26.9791 18.7331 26.917 18.1587 26.7935 17.596C26.7847 17.5574 26.7766 17.5188 26.7671 17.4809C27.4535 17.2732 28.1655 16.8069 28.8416 15.9551C30.5015 13.8632 29.9484 10.5063 27.9018 9.71719ZM4.00626 10.561C3.76661 11.431 3.64346 12.3286 3.64 13.2307C3.64 13.2941 3.64 13.356 3.64 13.418C3.64759 14.5082 3.52464 15.5955 3.27374 16.6568C2.7683 16.4783 2.24821 16.1169 1.75156 15.491C0.444747 13.8442 0.879131 11.2036 2.49067 10.5821C3.10013 10.3475 3.60996 10.397 4.00845 10.5508C4.00739 10.5541 4.00665 10.5575 4.00626 10.561ZM23.3675 16.1358C23.2794 16.3275 23.1778 16.5128 23.0635 16.6903C22.826 17.0551 22.6739 17.4682 22.6184 17.8993C22.5628 18.3303 22.6053 18.7683 22.7426 19.1808C22.9573 19.8089 23.1492 20.5201 23.1492 21.049C23.1477 24.9196 19.4639 28.0528 14.9179 28.0528C10.3718 28.0528 6.68581 24.9196 6.68581 21.049C6.68581 20.5201 6.87773 19.8104 7.09236 19.1808C7.22985 18.7684 7.27246 18.3306 7.21706 17.8997C7.16165 17.4688 7.00964 17.0557 6.77225 16.691C6.30904 15.9698 6.06206 15.1322 6.06024 14.2763C6.06024 11.7078 8.2578 9.62465 10.9718 9.62465C11.8479 9.62249 12.7097 9.8459 13.4733 10.2731C13.9136 10.5223 14.4114 10.6533 14.9179 10.6533C15.4244 10.6533 15.9222 10.5223 16.3624 10.2731C17.1258 9.84603 17.9874 9.62286 18.8632 9.62538C21.5735 9.62538 23.7755 11.7086 23.7755 14.277C23.7762 14.9187 23.637 15.5529 23.3675 16.1358ZM28.0849 15.4917C27.589 16.1161 27.0682 16.4775 26.5627 16.6575C26.3121 15.5964 26.1892 14.5094 26.1965 13.4194C26.1965 13.3575 26.1965 13.2956 26.1965 13.2322C26.1931 12.3265 26.0687 11.4253 25.8265 10.5522C26.225 10.3985 26.7349 10.3489 27.3443 10.5835C28.9559 11.2036 29.391 13.8442 28.0849 15.4917Z" fill="#A16552"/>
<path d="M12.8733 18.4145L12.8635 18.4357C12.7754 18.6275 12.8604 18.854 13.0532 18.9417L13.9887 19.3667C14.1815 19.4543 14.4092 19.3699 14.4973 19.1781L14.507 19.1568C14.5951 18.965 14.5102 18.7385 14.3174 18.6509L13.3819 18.2259C13.1891 18.1382 12.9613 18.2227 12.8733 18.4145Z" fill="#4E3F3F"/>
<path d="M15.3283 19.158L15.338 19.1792C15.4261 19.371 15.6538 19.4555 15.8466 19.3679L16.7821 18.9428C16.9749 18.8552 17.0599 18.6287 16.9718 18.4369L16.962 18.4157C16.874 18.2239 16.6462 18.1394 16.4534 18.227L15.5179 18.6521C15.3251 18.7397 15.2402 18.9662 15.3283 19.158Z" fill="#4E3F3F"/>
<path d="M10.6884 16.1343C9.90975 16.1343 9.27832 15.5397 9.27832 14.8053V14.3622C9.27832 13.6285 9.90975 13.0332 10.6884 13.0332C11.4671 13.0332 12.0978 13.6285 12.0978 14.3622V14.8053C12.0978 15.5397 11.4671 16.1343 10.6884 16.1343Z" fill="#4E3F3F"/>
<path d="M10.688 13.0332V14.5838C10.6963 14.7641 10.7741 14.9344 10.9054 15.0591C11.0366 15.1839 11.2111 15.2535 11.3927 15.2535C11.5742 15.2535 11.7487 15.1839 11.88 15.0591C12.0112 14.9344 12.0891 14.7641 12.0974 14.5838V14.3652C12.0974 13.6256 11.4667 13.0332 10.688 13.0332Z" fill="#5D5360"/>
<path d="M10.6881 14.3623C10.9478 14.3623 11.1583 14.164 11.1583 13.9193C11.1583 13.6747 10.9478 13.4763 10.6881 13.4763C10.4283 13.4763 10.2178 13.6747 10.2178 13.9193C10.2178 14.164 10.4283 14.3623 10.6881 14.3623Z" fill="white"/>
<path d="M19.1472 16.1343C18.3685 16.1343 17.7378 15.5397 17.7378 14.8053V14.3622C17.7378 13.6285 18.3685 13.0332 19.1472 13.0332C19.9258 13.0332 20.5573 13.6285 20.5573 14.3622V14.8053C20.5573 15.5397 19.9244 16.1343 19.1472 16.1343Z" fill="#4E3F3F"/>
<path d="M19.1475 13.0332V14.5838C19.1575 14.763 19.2362 14.9316 19.3673 15.0549C19.4984 15.1783 19.672 15.247 19.8525 15.247C20.033 15.247 20.2066 15.1783 20.3377 15.0549C20.4688 14.9316 20.5475 14.763 20.5576 14.5838V14.3652C20.5576 13.6256 19.9247 13.0332 19.1475 13.0332Z" fill="#5D5360"/>
<path d="M19.1475 14.3623C19.4073 14.3623 19.6178 14.164 19.6178 13.9193C19.6178 13.6747 19.4073 13.4763 19.1475 13.4763C18.8878 13.4763 18.6772 13.6747 18.6772 13.9193C18.6772 14.164 18.8878 14.3623 19.1475 14.3623Z" fill="white"/>
<path opacity="0.35" d="M15.0439 0.339548C14.7281 0.308945 14.0374 0.802236 13.2126 1.65839C13.0067 1.87188 12.7914 2.10869 12.5716 2.36518C10.9491 4.25601 9.07017 7.23761 8.42408 10.2972C7.34435 15.4341 6.90557 21.3944 8.81159 24.7003C10.4268 27.5012 13.1415 28.9694 13.1415 28.9694C12.0906 28.8459 11.057 28.6047 10.0605 28.2502C5.81851 26.7412 2.85693 23.3027 2.85693 19.309C2.85682 18.733 2.91921 18.1587 3.04299 17.596C3.05105 17.5574 3.05984 17.5188 3.06863 17.4809C2.38226 17.2688 1.67025 16.8054 0.993404 15.9573C-0.665753 13.8661 -0.113433 10.51 1.93396 9.7201C2.86646 9.36088 3.61875 9.52701 4.15423 9.81483L4.22382 9.85344C4.35718 9.46491 4.51023 9.08334 4.68237 8.7102C4.80837 8.4372 4.94437 8.16785 5.09039 7.90214C6.58106 5.18794 9.08335 2.9357 11.9622 1.9841C12.0969 1.71596 12.9591 0.150101 14.6915 0.010201C14.7802 0 14.8703 0 14.964 0L15.0439 0.339548Z" fill="#4E3F3F"/>
<path d="M40.6548 22.0225C40.2905 22.1624 39.6366 22.2321 38.6931 22.2316C37.7496 22.2311 36.9629 22.1454 36.333 21.9744C35.7015 21.8034 35.3858 21.5848 35.3858 21.3186C35.3858 21.0141 35.9535 19.0693 37.0889 15.4844C38.2243 11.8995 38.875 9.83496 39.0411 9.29091C39.105 9.12623 39.6178 8.98973 40.5794 8.88141C41.6089 8.77006 42.6438 8.71606 43.6794 8.71965C44.7835 8.71965 45.394 8.91007 45.5107 9.29091C47.9221 17.2608 49.1279 21.3092 49.1279 21.4359C49.1279 21.5627 49.0514 21.6895 48.8986 21.8163C48.5411 22.0961 47.833 22.2357 46.7743 22.2353C44.5157 22.2353 43.361 21.9681 43.3102 21.4338L43.1761 20.1951H41.3361L41.2408 21.2611C41.2145 21.6288 41.0191 21.8826 40.6548 22.0225ZM42.7689 16.5781L42.4825 13.1534H42.0613L41.736 16.5781H42.7689Z" fill="#A16552"/>
<path d="M50.3687 24.5349V12.4277C50.3687 12.1615 50.7259 11.8888 51.4403 11.6095C52.1787 11.3259 52.9643 11.1837 53.7558 11.1905C54.1389 11.1905 54.4385 11.2357 54.6554 11.3238C54.8722 11.412 55.0062 11.5016 55.0575 11.5905C55.1088 11.6794 55.204 12.0598 55.3447 12.7323H55.4978C55.5227 12.6186 55.6374 12.4411 55.842 12.1997C56.0246 11.9787 56.2335 11.7805 56.4639 11.6095C56.6739 11.4569 56.977 11.3204 57.373 11.2C57.824 11.0721 58.2915 11.0112 58.7604 11.0193C59.2642 11.0129 59.7613 11.1343 60.2049 11.3719C60.6386 11.6065 60.9609 11.8793 61.1718 12.1902C61.404 12.5526 61.5722 12.9518 61.6692 13.3706C61.7721 13.7445 61.8424 14.1265 61.8795 14.5124C61.899 14.798 61.9088 15.2109 61.9088 15.7511C61.9088 16.2912 61.8895 16.8244 61.8509 17.3504C61.811 17.8902 61.7408 18.4273 61.6407 18.9593C61.5571 19.446 61.4093 19.9195 61.2011 20.3678C61.013 20.7569 60.7679 21.1161 60.4738 21.4338C59.8877 22.0687 59.0265 22.3859 57.8902 22.3854C57.5216 22.392 57.1551 22.3308 56.809 22.2047C56.4964 22.0842 56.2637 21.9414 56.1109 21.7762C55.7915 21.4338 55.6064 21.1292 55.5556 20.8625L55.5366 20.6723H55.3835L55.6516 22.3854V24.5363C55.6516 24.6762 55.2853 24.7872 54.5528 24.8693C53.8032 24.953 53.0495 24.9944 52.2952 24.9932C51.5231 24.9932 51.0103 24.9585 50.7569 24.889C50.4961 24.8176 50.3687 24.701 50.3687 24.5349ZM56.5504 14.3885C56.4351 13.9572 56.2627 13.7415 56.0332 13.7415C55.8037 13.7415 55.6379 13.8685 55.5358 14.1226V19.1094C55.5358 19.4402 55.708 19.6054 56.0523 19.6049C56.4991 19.6049 56.7225 18.6212 56.7225 16.6539C56.7225 15.5755 56.6651 14.8204 56.5504 14.3885Z" fill="#A16552"/>
<path d="M68.4724 17.9297C68.4724 18.7555 68.868 19.1684 69.6591 19.1684C70.1181 19.1684 70.7178 19.013 71.4581 18.7021C72.1985 18.3912 72.5877 18.2358 72.6258 18.2358C72.8675 18.2358 73.1864 18.5974 73.5825 19.3207C73.9785 20.044 74.1763 20.5769 74.1758 20.9193C74.1758 21.4148 73.6655 21.7893 72.6448 22.0429C71.6658 22.2912 70.6599 22.419 69.6496 22.4233C68.6729 22.4233 67.8564 22.3472 67.2 22.1952C66.5437 22.0432 66.008 21.8489 65.5929 21.6123C64.8332 21.1772 64.2126 20.5374 63.8026 19.7666C63.6414 19.4347 63.5185 19.0856 63.4363 18.7261C63.3077 18.1577 63.2436 17.5768 63.2451 16.9941C63.2451 14.6843 63.8512 13.0915 65.0633 12.2157C65.6623 11.7722 66.346 11.4549 67.0726 11.283C67.8124 11.1053 68.6865 11.0164 69.695 11.0164C72.9225 11.0164 74.5362 12.1336 74.5362 14.3681C74.5362 16.7411 72.7247 17.9278 69.1016 17.9283L68.4724 17.9297ZM68.4343 15.1499V16.4069C68.6097 16.4103 68.7835 16.3726 68.9415 16.2966C69.0995 16.2206 69.2372 16.1086 69.3434 15.9697C69.5833 15.6666 69.7088 15.2893 69.6979 14.9037C69.6979 14.1425 69.5001 13.7616 69.1046 13.7612C68.6577 13.7607 68.4343 14.2236 68.4343 15.1499Z" fill="#A16552"/>
<path d="M85.9071 21.4323C85.5237 21.7117 84.9909 21.9431 84.3087 22.1267C83.6265 22.3104 82.7475 22.4024 81.6716 22.4029C80.6416 22.4072 79.6132 22.3179 78.5995 22.1362C77.6296 21.9589 76.9342 21.7624 76.5133 21.5467C76.0923 21.3311 75.8818 21.1214 75.8818 20.9179C75.887 20.1688 75.9899 19.4234 76.188 18.7007C76.3917 17.9327 76.6341 17.5487 76.9154 17.5487C76.9643 17.5487 77.4936 17.7201 78.5035 18.0631C79.5134 18.406 80.2725 18.5761 80.7809 18.5731C81.2917 18.5731 81.6235 18.5192 81.7764 18.4114C81.8512 18.3594 81.9115 18.2893 81.9516 18.2077C81.9917 18.1261 82.0103 18.0357 82.0057 17.9451C82.0057 17.7415 81.8653 17.5606 81.5845 17.4022C81.2511 17.2226 80.8979 17.0822 80.5319 16.984C80.063 16.8449 79.6057 16.6698 79.1642 16.4601C78.6887 16.2424 78.2306 15.9891 77.7937 15.7023C77.3497 15.3979 76.9882 14.9892 76.7411 14.5124C76.4532 13.9705 76.3083 13.3648 76.3199 12.752C76.3199 9.93459 78.0103 8.52588 81.3911 8.52588C82.654 8.52588 83.7449 8.60506 84.664 8.76342C85.583 8.92177 86.2303 9.09956 86.6059 9.29678C86.9824 9.49109 87.1707 9.68539 87.1707 9.8797C87.1707 10.5394 87.0144 11.25 86.7018 12.0117C86.3893 12.7734 86.0863 13.154 85.7928 13.1535C85.7415 13.1535 85.5757 13.0964 85.2954 12.9823C84.453 12.6145 83.7544 12.4304 83.1997 12.4299C82.6449 12.4295 82.2686 12.4802 82.0709 12.5822C81.9803 12.6219 81.9037 12.6875 81.8509 12.7707C81.798 12.8539 81.7713 12.9509 81.7742 13.0493C81.7742 13.2587 81.9144 13.4299 82.1947 13.563C82.5301 13.7168 82.8793 13.8388 83.2378 13.9273C83.704 14.054 84.1585 14.2197 84.5966 14.4228C85.0767 14.6389 85.5349 14.9002 85.9649 15.2032C86.3864 15.5009 86.7372 15.9228 87.0176 16.4688C87.2979 17.0148 87.4383 17.6495 87.4388 18.3728C87.4466 19.1067 87.2405 19.8273 86.8454 20.4472C86.5976 20.8313 86.2793 21.1655 85.9071 21.4323Z" fill="#A16552"/>
<path d="M103.494 21.7747C103.328 22.0793 102.464 22.2316 100.901 22.2316C99.3382 22.2316 98.5249 22.0793 98.4609 21.7747L97.8104 18.31H97.5423L96.9299 21.7747C96.8913 22.0793 95.775 22.2316 93.5808 22.2316C92.9684 22.2316 92.5634 22.1966 92.3656 22.1267C92.2762 22.0997 92.1934 22.0544 92.1225 21.9938C92.0516 21.9332 91.9942 21.8586 91.9539 21.7747C89.5815 15.9757 88.3951 12.9237 88.3946 12.6186C88.3941 12.3136 88.8566 11.9995 89.782 11.6765C90.6375 11.3648 91.5402 11.2004 92.4513 11.1905C93.5486 11.1905 94.1165 11.4819 94.1551 12.0648L94.8056 17.2805H95.0349L95.2649 13.074C95.2776 12.7573 95.6028 12.478 96.2406 12.2361C96.8572 11.9984 97.5124 11.8749 98.1737 11.8718C98.8242 11.8718 99.3126 11.9509 99.6388 12.1093C99.965 12.2677 100.134 12.462 100.146 12.6922L100.356 17.2827H100.567L101.198 12.3869C101.236 12.0823 101.666 11.8064 102.489 11.5592C103.312 11.3119 104.036 11.188 104.661 11.1876C105.286 11.1876 105.778 11.2765 106.135 11.4542C106.721 11.7331 107.014 12.0631 107.014 12.4445C107.014 12.4824 106.437 14.0305 105.282 17.0888C104.128 20.1472 103.532 21.7092 103.494 21.7747Z" fill="#A16552"/>
<path d="M111.034 22.4029C109.873 22.4029 108.961 22.1302 108.297 21.5847C108.029 21.3559 107.796 21.0195 107.598 20.5755C107.4 20.1315 107.302 19.6122 107.302 19.0176C107.289 18.4667 107.438 17.9241 107.732 17.4569C107.995 17.0359 108.353 16.6826 108.779 16.4259C109.229 16.1672 109.712 15.9688 110.214 15.8357C111.109 15.6121 112.028 15.5034 112.951 15.5121H113.583C113.583 14.9919 113.404 14.6239 113.047 14.4082C112.893 14.3194 112.66 14.2749 112.348 14.2749C112.035 14.2749 111.659 14.3572 111.219 14.5219C110.839 14.6592 110.472 14.8282 110.12 15.0269C109.827 15.1983 109.629 15.2838 109.527 15.2833C109.297 15.2833 108.984 14.9819 108.589 14.3791C108.194 13.7763 107.996 13.2274 107.996 12.7324C107.996 12.5677 108.232 12.352 108.704 12.0853C109.177 11.8187 109.843 11.5743 110.704 11.3523C111.525 11.1358 112.371 11.0239 113.22 11.0193C113.93 11.0091 114.64 11.076 115.335 11.219C115.838 11.3215 116.327 11.4847 116.79 11.705C117.159 11.8896 117.485 12.149 117.747 12.4664C117.972 12.7315 118.171 13.0183 118.34 13.3226C118.49 13.635 118.589 13.9693 118.633 14.3128C118.73 14.8849 118.775 15.4646 118.767 16.0448V21.7748C118.767 21.9147 118.425 22.0257 117.741 22.1078C117.068 22.1901 116.391 22.2314 115.713 22.2317C115.043 22.2317 114.609 22.2127 114.411 22.1749C114.214 22.1362 114.096 22.0925 114.058 22.0415C114.007 21.9602 113.975 21.8694 113.962 21.7748L113.809 20.6935H113.655C113.335 21.8331 112.461 22.4029 111.034 22.4029ZM113.598 19.2428V17.0161C113.439 17.0135 113.282 17.0503 113.141 17.1234C113.001 17.1964 112.88 17.3033 112.792 17.4343C112.589 17.7105 112.482 18.0446 112.486 18.3866C112.486 19.2236 112.677 19.6423 113.06 19.6428C113.202 19.6509 113.341 19.6068 113.453 19.519C113.496 19.4865 113.531 19.4449 113.557 19.3972C113.582 19.3494 113.596 19.2967 113.598 19.2428H113.598Z" fill="#A16552"/>
<path d="M120.487 24.5349V12.4277C120.487 12.1615 120.844 11.8888 121.558 11.6095C122.297 11.3259 123.083 11.1837 123.875 11.1905C124.257 11.1905 124.557 11.2357 124.774 11.3238C124.992 11.412 125.124 11.5016 125.176 11.5905C125.227 11.6794 125.322 12.0598 125.463 12.7323H125.616C125.642 12.6186 125.757 12.4411 125.96 12.1997C126.143 11.9788 126.352 11.7807 126.582 11.6095C126.793 11.4569 127.096 11.3204 127.491 11.2C127.942 11.0721 128.41 11.0113 128.879 11.0193C129.383 11.0128 129.88 11.1342 130.324 11.3719C130.758 11.6065 131.08 11.8793 131.29 12.1902C131.523 12.5523 131.691 12.9516 131.787 13.3706C131.891 13.7444 131.961 14.1264 131.998 14.5124C132.017 14.798 132.027 15.2109 132.027 15.7511C132.027 16.2912 132.008 16.8244 131.97 17.3504C131.93 17.8902 131.859 18.4273 131.759 18.9593C131.676 19.4461 131.528 19.9198 131.319 20.3677C131.131 20.7567 130.886 21.1159 130.593 21.4338C130.007 22.0686 129.145 22.3858 128.009 22.3854C127.641 22.3921 127.274 22.3309 126.928 22.2047C126.615 22.0842 126.382 21.9414 126.229 21.7762C125.91 21.4338 125.725 21.1292 125.674 20.8625L125.655 20.6723H125.502L125.77 22.3854V24.5363C125.77 24.6762 125.404 24.7872 124.671 24.8693C123.921 24.953 123.167 24.9944 122.413 24.9932C121.641 24.9932 121.128 24.9584 120.874 24.889C120.614 24.8176 120.487 24.701 120.487 24.5349ZM126.669 14.3885C126.554 13.9571 126.383 13.7415 126.156 13.7415C125.929 13.7415 125.763 13.8685 125.658 14.1225V19.1094C125.658 19.4402 125.83 19.6053 126.175 19.6049C126.621 19.6049 126.844 18.6212 126.844 16.6539C126.842 15.5755 126.783 14.8203 126.669 14.3885Z" fill="#A16552"/>
</g>
<defs>
<clipPath id="clip0_1_3458">
<rect width="132" height="29" fill="white"/>
</clipPath>
</defs>
</svg>
