<svg width="138" height="31" viewBox="0 0 138 31" fill="none" xmlns="http://www.w3.org/2000/svg">
<path d="M43.9385 20.6612C45.629 20.6612 47.2887 20.0891 48.2877 19.316V14.3839H43.7079V16.5176H45.8288V17.8163C45.1987 18.1565 44.6147 18.2956 43.9385 18.2956C42.0789 18.2956 40.9878 16.8422 40.9878 15.0642C40.9878 13.0233 42.2787 11.8328 43.8309 11.8328C44.9989 11.8328 45.8595 12.343 46.4435 12.9151L48.2569 11.369C47.135 10.0702 45.4138 9.40541 43.8309 9.40541C40.3423 9.40541 38.2984 11.8792 38.2984 15.0642C38.2984 18.6358 40.788 20.6612 43.9385 20.6612ZM49.8753 20.5375H52.2727V16.734C52.2727 15.559 52.8259 14.9869 53.6559 14.9869C54.4396 14.9869 54.8546 15.3425 54.8546 16.5949V20.5375H57.2518V16.0073C57.2518 13.6109 56.1145 12.8378 54.5625 12.8378C53.6866 12.8378 52.8875 13.1779 52.3034 13.8582H52.2727V12.9769H49.8753V20.5375ZM62.5237 20.6767C64.8903 20.6767 66.5812 19.0842 66.5812 16.765C66.5812 14.4303 64.8903 12.8378 62.5237 12.8378C60.0955 12.8378 58.4514 14.4612 58.4514 16.765C58.4514 19.0532 60.0955 20.6767 62.5237 20.6767ZM62.5237 18.543C61.5707 18.543 60.8796 17.7699 60.8796 16.765C60.8796 15.7291 61.5558 14.9869 62.5237 14.9869C63.4613 14.9869 64.1529 15.7136 64.1529 16.765C64.1529 17.8009 63.4305 18.543 62.5237 18.543ZM70.3442 20.6767C72.4032 20.6767 73.4025 19.6562 73.4025 18.2493C73.4025 16.765 72.4957 16.332 70.8361 15.76C70.0829 15.4971 69.8061 15.3271 69.8061 15.0951C69.8061 14.8014 70.1291 14.6777 70.4059 14.6777C70.9126 14.6777 71.5581 14.9405 72.0808 15.4662L73.2181 13.7809C72.3422 13.1316 71.5118 12.8378 70.375 12.8378C68.8074 12.8378 67.5622 13.7191 67.5622 15.2497C67.5622 16.7031 68.6688 17.3216 69.9294 17.7081C70.8664 18.0019 71.097 18.1565 71.097 18.4039C71.097 18.6821 70.851 18.8522 70.375 18.8522C69.6834 18.8522 69.038 18.5739 68.4079 18.0019L67.286 19.5634C68.1158 20.3056 69.1607 20.6767 70.3442 20.6767ZM75.9138 12.0338C76.7441 12.0338 77.3587 11.4308 77.3587 10.6423C77.3587 9.88469 76.7441 9.28174 75.9138 9.28174C75.084 9.28174 74.4848 9.90019 74.4848 10.6423C74.4848 11.4308 75.084 12.0338 75.9138 12.0338ZM74.7153 20.5375H77.1127V12.9769H74.7153V20.5375ZM81.3298 20.6767C83.3893 20.6767 84.388 19.6562 84.388 18.2493C84.388 16.765 83.4818 16.332 81.8217 15.76C81.069 15.4971 80.7922 15.3271 80.7922 15.0951C80.7922 14.8014 81.1146 14.6777 81.3914 14.6777C81.8987 14.6777 82.5441 14.9405 83.0663 15.4662L84.2037 13.7809C83.3277 13.1316 82.4979 12.8378 81.3606 12.8378C79.7929 12.8378 78.5483 13.7191 78.5483 15.2497C78.5483 16.7031 79.6548 17.3216 80.9149 17.7081C81.8525 18.0019 82.083 18.1565 82.083 18.4039C82.083 18.6821 81.8371 18.8522 81.3606 18.8522C80.6689 18.8522 80.0235 18.5739 79.3935 18.0019L78.2715 19.5634C79.1018 20.3056 80.1467 20.6767 81.3298 20.6767ZM94.7407 20.6767C96.677 20.6767 98.1984 19.749 99.1361 18.5894L97.2608 16.966C96.6308 17.7235 95.7548 18.2029 94.7407 18.2029C92.958 18.2029 91.8052 16.8268 91.8052 15.0642C91.8052 13.0543 93.1423 11.8792 94.7253 11.8792C95.7856 11.8792 96.6616 12.4513 97.2454 13.147L99.1207 11.5236C97.9217 10.0548 96.2622 9.40541 94.7253 9.40541C91.129 9.40541 89.1002 11.9256 89.1002 15.0642C89.1002 18.7131 91.6055 20.6767 94.7407 20.6767ZM100.317 20.5375H102.715V16.7186C102.715 15.5435 103.268 14.9869 104.113 14.9869C104.958 14.9869 105.373 15.358 105.373 16.5794V20.5375H107.771V15.9764C107.771 13.5954 106.618 12.8378 105.066 12.8378C104.144 12.8378 103.329 13.1779 102.745 13.8428L102.715 13.8273V9.15802H100.317V20.5375ZM112.488 20.6767C113.394 20.6767 114.07 20.3674 114.562 19.7335L114.593 19.749V20.5375H116.883V12.9769H114.47V13.7655L114.439 13.7809C113.917 13.1625 113.164 12.8378 112.364 12.8378C110.428 12.8378 108.937 14.4458 108.937 16.765C108.937 19.0996 110.428 20.6767 112.488 20.6767ZM112.994 18.543C112.042 18.543 111.381 17.8318 111.381 16.765C111.381 15.6827 112.073 14.9715 112.994 14.9715C113.886 14.9715 114.577 15.7291 114.577 16.765C114.577 17.8473 113.855 18.543 112.994 18.543ZM119.767 12.0338C120.597 12.0338 121.212 11.4308 121.212 10.6423C121.212 9.88469 120.597 9.28174 119.767 9.28174C118.938 9.28174 118.338 9.90019 118.338 10.6423C118.338 11.4308 118.938 12.0338 119.767 12.0338ZM118.569 20.5375H120.966V12.9769H118.569V20.5375ZM122.709 20.5375H125.106V16.734C125.106 15.559 125.66 14.9869 126.49 14.9869C127.274 14.9869 127.689 15.3425 127.689 16.5949V20.5375H130.086V16.0073C130.086 13.6109 128.949 12.8378 127.396 12.8378C126.52 12.8378 125.721 13.1779 125.137 13.8582H125.106V12.9769H122.709V20.5375Z" fill="#EFEFEF"/>
<path d="M14.8589 17.3103C15.6404 17.3103 16.3619 17.0483 16.9431 16.5948L12.1734 11.7979C11.7225 12.3723 11.4619 13.0979 11.4619 13.894C11.4519 15.7785 12.975 17.3103 14.8589 17.3103Z" fill="#EFEFEF"/>
<path d="M29.0476 13.8838C29.0476 13.0978 28.7871 12.3722 28.3362 11.7877L23.5664 16.5846C24.1376 17.0381 24.8591 17.3001 25.6507 17.3001C27.5245 17.3102 29.0476 15.7784 29.0476 13.8838Z" fill="#EFEFEF"/>
<path d="M31.4526 8.67383L29.3382 10.8002C30.0396 11.6467 30.4605 12.7149 30.4605 13.9041C30.4605 16.5746 28.3061 18.7412 25.6507 18.7412C24.4783 18.7412 23.4061 18.318 22.5644 17.6126L20.2496 19.9404L17.9349 17.6126C17.0932 18.318 16.031 18.7412 14.8486 18.7412C12.1931 18.7412 10.0387 16.5746 10.0387 13.9041C10.0387 12.725 10.4596 11.6467 11.161 10.8002L10.0788 9.71183L9.0467 8.67383C7.84426 10.6692 7.15283 12.9971 7.15283 15.4963C7.15283 22.7722 13.0148 28.6575 20.2396 28.6575C27.4644 28.6575 33.3263 22.7622 33.3263 15.4963C33.3464 12.987 32.655 10.6591 31.4526 8.67383Z" fill="#EFEFEF"/>
<path d="M29.719 6.40632C27.3442 3.89703 23.9773 2.32495 20.2497 2.32495C16.522 2.32495 13.1652 3.89703 10.7803 6.40632C10.4596 6.74898 10.149 7.11179 9.8584 7.48462L20.2397 17.9249L30.6209 7.47455C30.3603 7.11173 30.0497 6.7389 29.719 6.40632ZM20.2497 4.03812C23.3159 4.03812 26.1618 5.22727 28.2961 7.39395L20.2497 15.4862L12.2032 7.39395C14.3476 5.22727 17.1834 4.03812 20.2497 4.03812Z" fill="#EFEFEF"/>
</svg>
