<svg width="100" height="43" viewBox="0 0 100 43" fill="none" xmlns="http://www.w3.org/2000/svg">
<g clip-path="url(#clip0_1_3418)">
<path d="M43.1279 21.5H34.4902V9.31525H36.9744V19.2729H43.1208L43.1279 21.5Z" fill="white"/>
<path d="M48.5256 21.4999H46.0415V9.31519H48.5256V21.4999Z" fill="white"/>
<path d="M57.8729 21.7106C57.067 21.6966 56.2722 21.5198 55.5358 21.1905C54.7993 20.8612 54.1362 20.3863 53.586 19.794C52.4724 18.6122 51.869 17.0353 51.9075 15.4076C51.885 14.5773 52.0308 13.7511 52.3358 12.9793C52.6408 12.2074 53.0988 11.506 53.6818 10.9178C54.8807 9.73479 56.4932 9.07208 58.1728 9.07208C59.8523 9.07208 61.4648 9.73479 62.6637 10.9178C63.2492 11.5054 63.7104 12.2061 64.0196 12.9777C64.3288 13.7493 64.4796 14.5759 64.4629 15.4076C64.4749 16.6685 64.1143 17.9045 63.4267 18.9588C62.7744 19.9911 61.8142 20.7894 60.6835 21.2395C60.8984 21.5248 61.178 21.7544 61.499 21.909C61.82 22.0636 62.1731 22.1387 62.5288 22.1282C63.0305 22.136 63.5257 22.013 63.9661 21.7713V23.877C63.3896 24.1387 62.7639 24.2726 62.1314 24.2696C60.7687 24.2696 59.3492 23.4166 57.8729 21.7106ZM55.5023 18.2629C55.8507 18.621 56.2666 18.9056 56.7258 19.0999C57.185 19.2942 57.6781 19.3943 58.1763 19.3943C58.6745 19.3943 59.1676 19.2942 59.6268 19.0999C60.086 18.9056 60.502 18.621 60.8503 18.2629C61.2065 17.8813 61.484 17.4325 61.6667 16.9424C61.8494 16.4523 61.9338 15.9307 61.9149 15.4076C61.9334 14.8846 61.8489 14.3631 61.6661 13.8731C61.4834 13.383 61.2062 12.9342 60.8503 12.5524C60.502 12.1942 60.086 11.9096 59.6268 11.7153C59.1676 11.521 58.6745 11.421 58.1763 11.421C57.6781 11.421 57.185 11.521 56.7258 11.7153C56.2666 11.9096 55.8507 12.1942 55.5023 12.5524C55.1461 12.934 54.8687 13.3828 54.6859 13.8729C54.5032 14.3629 54.4188 14.8846 54.4377 15.4076C54.4188 15.9307 54.5032 16.4523 54.6859 16.9424C54.8687 17.4325 55.1461 17.8813 55.5023 18.2629Z" fill="white"/>
<path d="M72.7742 21.7426C72.0909 21.7662 71.4099 21.6521 70.7711 21.4069C70.1324 21.1617 69.549 20.7905 69.0551 20.315C68.0875 19.3823 67.6025 18.0713 67.6001 16.3819V9.31519H70.0842V16.4533C70.0586 16.8453 70.1104 17.2385 70.2365 17.6103C70.3625 17.9821 70.5604 18.3251 70.8188 18.6197C71.3618 19.1071 72.0641 19.3765 72.7919 19.3765C73.5197 19.3765 74.222 19.1071 74.765 18.6197C75.0234 18.3251 75.2213 17.9821 75.3473 17.6103C75.4734 17.2385 75.5252 16.8453 75.4996 16.4533V9.31519H77.9837V16.3819C77.9837 18.0784 77.4928 19.3954 76.511 20.3329C76.0126 20.806 75.4254 21.1743 74.7838 21.4164C74.1421 21.6585 73.4589 21.7694 72.7742 21.7426Z" fill="white"/>
<path d="M84.0803 21.5H81.5962V9.31525H84.0803V21.5Z" fill="white"/>
<path d="M92.4023 21.4999H87.8706V9.31519H92.4023C94.366 9.31519 95.9653 9.88385 97.2002 11.0212C97.8054 11.5745 98.284 12.2531 98.6032 13.0104C98.9224 13.7676 99.0745 14.5855 99.0491 15.4076C99.0757 16.2324 98.9242 17.0533 98.605 17.8136C98.2858 18.5739 97.8066 19.2556 97.2002 19.8118C95.9771 20.9372 94.3778 21.4999 92.4023 21.4999ZM90.3618 11.5601V19.2729H92.1965C93.545 19.2729 94.5978 18.9338 95.3549 18.2557C95.7385 17.8962 96.039 17.4564 96.2352 16.9674C96.4314 16.4784 96.5186 15.952 96.4905 15.4254C96.5186 14.8988 96.4314 14.3725 96.2352 13.8834C96.039 13.3944 95.7385 12.9547 95.3549 12.5951C94.6002 11.917 93.5474 11.578 92.1965 11.578L90.3618 11.5601Z" fill="white"/>
<path d="M38.1028 32.2001C37.5855 32.2139 37.0706 32.1242 36.5881 31.9361C36.1056 31.7479 35.6651 31.4652 35.2922 31.1044C34.5732 30.3552 34.1714 29.3546 34.1714 28.3133C34.1714 27.2721 34.5732 26.2715 35.2922 25.5223C35.662 25.1567 36.1019 24.8704 36.585 24.6808C37.0681 24.4912 37.5845 24.4023 38.1028 24.4195C38.8105 24.4058 39.5092 24.5793 40.1292 24.9227V26.1112C39.5296 25.7196 38.8284 25.5148 38.1135 25.5223C37.7488 25.5138 37.3863 25.5804 37.0482 25.7179C36.7101 25.8555 36.4035 26.0611 36.1472 26.3221C35.891 26.5832 35.6905 26.8942 35.5581 27.236C35.4257 27.5778 35.3642 27.9432 35.3774 28.3098C35.365 28.6797 35.4284 29.0481 35.5638 29.3923C35.6992 29.7364 35.9036 30.0488 36.1643 30.31C36.425 30.5712 36.7364 30.7755 37.079 30.9104C37.4217 31.0452 37.7884 31.1076 38.1561 31.0936C38.9234 31.121 39.6763 30.8787 40.2853 30.4084V31.5969C39.6318 32.0076 38.8732 32.2172 38.1028 32.2001Z" fill="white"/>
<path d="M44.4977 32.2C44.1175 32.2155 43.7381 32.1532 43.3825 32.017C43.0269 31.8809 42.7024 31.6736 42.4287 31.4077C41.913 30.8861 41.6235 30.1803 41.6235 29.4447C41.6235 28.7091 41.913 28.0033 42.4287 27.4817C42.9927 26.9653 43.7279 26.6791 44.4906 26.6791C45.2532 26.6791 45.9884 26.9653 46.5524 27.4817C46.809 27.7393 47.0127 28.0453 47.1516 28.3821C47.2905 28.7189 47.362 29.08 47.362 29.4447C47.362 29.8094 47.2905 30.1705 47.1516 30.5073C47.0127 30.8441 46.809 31.1501 46.5524 31.4077C46.2804 31.6718 45.9582 31.8781 45.6052 32.0142C45.2522 32.1503 44.8755 32.2135 44.4977 32.2ZM44.4977 31.1793C44.7238 31.1863 44.949 31.1469 45.1595 31.0634C45.37 30.98 45.5614 30.8542 45.722 30.6939C46.0373 30.3552 46.2128 29.9087 46.2128 29.4447C46.2128 28.9807 46.0373 28.5342 45.722 28.1955C45.4803 27.9491 45.1708 27.7809 44.8334 27.7128C44.496 27.6447 44.146 27.6797 43.8284 27.8132C43.5109 27.9468 43.2404 28.1729 43.0517 28.4623C42.8629 28.7518 42.7646 29.0914 42.7694 29.4376C42.7627 29.6685 42.8026 29.8984 42.8868 30.1134C42.971 30.3283 43.0978 30.5238 43.2594 30.688C43.421 30.8522 43.6141 30.9817 43.8269 31.0686C44.0398 31.1555 44.268 31.198 44.4977 31.1935V31.1793Z" fill="white"/>
<path d="M50.3141 32.2C50.1389 32.2069 49.964 32.179 49.7996 32.1177C49.6351 32.0565 49.4844 31.9631 49.3559 31.8431C49.2287 31.7025 49.1316 31.5371 49.0706 31.3573C49.0095 31.1774 48.9859 30.9868 49.001 30.7974V24.5587H50.1508V30.494C50.1508 30.9223 50.3425 31.1364 50.7257 31.1364C50.8793 31.1413 51.0314 31.1043 51.1658 31.0294V32.0287C50.8992 32.1522 50.6074 32.2109 50.3141 32.2Z" fill="white"/>
<path d="M53.941 32.2001C53.7658 32.207 53.591 32.179 53.4265 32.1178C53.2621 32.0565 53.1113 31.9632 52.9829 31.8432C52.8557 31.7026 52.7586 31.5372 52.6975 31.3573C52.6365 31.1775 52.6128 30.9869 52.628 30.7974V24.5587H53.7778V30.4941C53.7778 30.9223 53.9694 31.1365 54.3527 31.1365C54.5051 31.1409 54.6559 31.1039 54.7892 31.0294V32.0288C54.5238 32.1523 54.2332 32.211 53.941 32.2001Z" fill="white"/>
<path d="M55.8998 29.4233C55.8885 29.0612 55.9485 28.7003 56.0764 28.3616C56.2043 28.0229 56.3976 27.7129 56.645 27.4496C56.8945 27.1881 57.196 26.9824 57.5299 26.8459C57.8637 26.7093 58.2224 26.6451 58.5826 26.6573C59.0762 26.6419 59.5608 26.7926 59.9595 27.0856C60.3283 27.3566 60.6231 27.7169 60.8167 28.1331C61.0102 28.5492 61.0962 29.0077 61.0667 29.4661V29.7659H57.0602C57.0889 29.9738 57.1601 30.1735 57.2695 30.3523C57.3788 30.531 57.5239 30.685 57.6954 30.8045C58.0932 31.0615 58.5612 31.1863 59.0333 31.1614C59.626 31.1634 60.2079 31.0017 60.7154 30.6939V31.6718C60.1406 32.0406 59.4659 32.2202 58.7849 32.1858C58.0265 32.2026 57.2907 31.9253 56.7302 31.4113C56.4583 31.159 56.2435 30.851 56.1002 30.508C55.957 30.165 55.8886 29.7951 55.8998 29.4233ZM57.0709 28.8879H59.9099C59.9031 28.714 59.8619 28.5431 59.7887 28.3854C59.7155 28.2276 59.6118 28.0861 59.4836 27.9692C59.3554 27.8522 59.2053 27.7621 59.042 27.7041C58.8788 27.6462 58.7057 27.6215 58.5329 27.6316C58.1653 27.6183 57.8063 27.7459 57.5286 27.9885C57.2657 28.2171 57.1015 28.5397 57.0709 28.8879Z" fill="white"/>
<path d="M65.1904 32.2C64.8217 32.2087 64.455 32.1438 64.1114 32.009C63.7679 31.8742 63.4543 31.6723 63.1889 31.4149C62.919 31.1584 62.7062 30.8474 62.5643 30.5023C62.4224 30.1572 62.3547 29.7859 62.3656 29.4126C62.3538 29.0419 62.4212 28.6729 62.5632 28.3306C62.7052 27.9883 62.9186 27.6806 63.1889 27.4282C63.7341 26.9175 64.4561 26.6409 65.201 26.6573C65.7486 26.6439 66.291 26.7665 66.7802 27.0142V28.0135C66.3398 27.7884 65.8546 27.6664 65.3607 27.6566C64.8733 27.6433 64.3999 27.8212 64.0406 28.1527C63.8749 28.3153 63.7432 28.5096 63.6533 28.7241C63.5634 28.9386 63.5171 29.1691 63.5171 29.4019C63.5171 29.6347 63.5634 29.8652 63.6533 30.0797C63.7432 30.2942 63.8749 30.4885 64.0406 30.6511C64.4004 30.9813 64.8738 31.1579 65.3607 31.1436C65.8856 31.153 66.4027 31.0159 66.8547 30.7474V31.7646C66.3474 32.0537 65.7735 32.2039 65.1904 32.2Z" fill="white"/>
<path d="M69.2005 30.6225V27.8173H68.0826V26.7965H69.2005V25.2654H70.3538V26.7965H72.004V27.8173H70.3538V30.2906C70.343 30.4059 70.3553 30.5221 70.3901 30.6325C70.4248 30.7428 70.4813 30.8451 70.5561 30.933C70.6405 31.0064 70.7385 31.0622 70.8445 31.0972C70.9505 31.1321 71.0624 31.1454 71.1736 31.1365C71.4478 31.1371 71.7181 31.071 71.9614 30.9437V31.9431C71.6076 32.1402 71.2044 32.2295 70.8009 32.2001C70.3714 32.225 69.9494 32.0789 69.6263 31.7932C69.4782 31.6386 69.3638 31.4547 69.2905 31.2531C69.2172 31.0515 69.1865 30.8367 69.2005 30.6225Z" fill="white"/>
<path d="M74.3428 25.8542C74.1546 25.8542 73.974 25.779 73.8409 25.6452C73.7078 25.5113 73.633 25.3298 73.633 25.1404C73.6306 25.0433 73.6479 24.9466 73.6839 24.8564C73.7199 24.7662 73.7738 24.6843 73.8424 24.6158C73.9086 24.5467 73.988 24.4917 74.0758 24.4542C74.1636 24.4167 74.258 24.3973 74.3534 24.3973C74.4488 24.3973 74.5433 24.4167 74.6311 24.4542C74.7189 24.4917 74.7982 24.5467 74.8645 24.6158C74.933 24.6843 74.987 24.7662 75.023 24.8564C75.059 24.9466 75.0763 25.0433 75.0738 25.1404C75.0738 25.3298 74.9991 25.5113 74.8659 25.6452C74.7328 25.779 74.5523 25.8542 74.3641 25.8542H74.3428ZM74.9212 32.0608H73.7679V26.7965H74.9212V32.0608Z" fill="white"/>
<path d="M80.0452 32.2001C79.6882 32.2183 79.3322 32.1496 79.0072 31.9999C78.6822 31.8502 78.398 31.6238 78.1786 31.3399V32.0537H77.0288V24.5587H78.1786V27.5139C78.3988 27.2312 78.6832 27.0058 79.0081 26.8567C79.3329 26.7077 79.6886 26.6393 80.0452 26.6573C80.3888 26.648 80.7301 26.7151 81.0449 26.8539C81.3596 26.9928 81.6399 27.1998 81.8657 27.4604C82.3244 28.0105 82.5758 28.7054 82.5758 29.4233C82.5758 30.1412 82.3244 30.8362 81.8657 31.3863C81.6412 31.6492 81.3614 31.8586 81.0466 31.9993C80.7317 32.14 80.3897 32.2086 80.0452 32.2001ZM79.7365 31.1793C79.9596 31.1875 80.182 31.1485 80.3892 31.0649C80.5964 30.9813 80.7839 30.8549 80.9395 30.6939C81.2572 30.3562 81.4294 29.906 81.4186 29.4412C81.4257 29.2119 81.387 28.9835 81.3047 28.7695C81.2224 28.5555 81.0982 28.3604 80.9395 28.1956C80.7873 28.0281 80.6012 27.8952 80.3937 27.8059C80.1862 27.7167 79.9621 27.6731 79.7365 27.6781C79.4138 27.6774 79.0975 27.769 78.8245 27.9422C78.5549 28.1057 78.3323 28.3369 78.1786 28.6132V30.2407C78.3284 30.5215 78.5501 30.7569 78.8209 30.9223C79.0953 31.0946 79.4131 31.1838 79.7365 31.1793Z" fill="white"/>
<path d="M85.5245 32.2001C85.3493 32.207 85.1745 32.179 85.01 32.1178C84.8456 32.0565 84.6948 31.9632 84.5664 31.8432C84.4392 31.7026 84.3421 31.5372 84.281 31.3573C84.22 31.1775 84.1963 30.9869 84.2115 30.7974V24.5587H85.3613V30.4941C85.3613 30.9223 85.5529 31.1365 85.9362 31.1365C86.0886 31.1409 86.2394 31.1039 86.3727 31.0294V32.0288C86.1073 32.1523 85.8167 32.211 85.5245 32.2001Z" fill="white"/>
<path d="M87.4838 29.4234C87.4725 29.0612 87.5325 28.7004 87.6604 28.3617C87.7883 28.023 87.9815 27.713 88.229 27.4497C88.4785 27.1882 88.78 26.9824 89.1139 26.8459C89.4477 26.7094 89.8064 26.6451 90.1666 26.6573C90.6602 26.642 91.1448 26.7927 91.5435 27.0856C91.9123 27.3567 92.2071 27.717 92.4007 28.1331C92.5942 28.5492 92.6802 29.0078 92.6507 29.4662V29.766H88.6442C88.6729 29.9739 88.7441 30.1735 88.8535 30.3523C88.9628 30.5311 89.1079 30.6851 89.2794 30.8046C89.6772 31.0615 90.1452 31.1864 90.6173 31.1615C91.21 31.1635 91.7918 31.0018 92.2994 30.694V31.6719C91.7246 32.0407 91.0498 32.2203 90.3689 32.1858C89.6105 32.2027 88.8747 31.9254 88.3142 31.4113C88.0423 31.1591 87.8275 30.851 87.6842 30.5081C87.541 30.1651 87.4726 29.7952 87.4838 29.4234ZM88.6548 28.888H91.4938C91.4871 28.7141 91.4459 28.5432 91.3727 28.3855C91.2995 28.2277 91.1957 28.0862 91.0675 27.9692C90.9393 27.8523 90.7892 27.7622 90.626 27.7042C90.4628 27.6463 90.2897 27.6216 90.1169 27.6317C89.7493 27.6184 89.3903 27.7459 89.1126 27.9886C88.8497 28.2172 88.6855 28.5398 88.6548 28.888Z" fill="white"/>
<path d="M96.1885 32.2001C95.4227 32.2432 94.6616 32.0555 94.0024 31.6611V30.569C94.6309 30.9944 95.3743 31.2149 96.1317 31.2007C96.4235 31.2161 96.7146 31.1597 96.9798 31.0365C97.0684 30.9975 97.1439 30.9337 97.1974 30.8527C97.2509 30.7717 97.2801 30.6769 97.2815 30.5797C97.2747 30.4863 97.2409 30.3969 97.1841 30.3227C97.1273 30.2485 97.0501 30.1926 96.9621 30.1621C96.7995 30.0961 96.6323 30.0424 96.4617 30.0015L95.8158 29.8409C95.3284 29.7445 94.8695 29.537 94.4744 29.2342C94.3297 29.0882 94.218 28.9124 94.1473 28.7189C94.0765 28.5254 94.0482 28.3188 94.0644 28.1133C94.0806 27.9078 94.1409 27.7082 94.241 27.5284C94.3412 27.3485 94.479 27.1926 94.6448 27.0713C95.133 26.7693 95.7014 26.6248 96.2736 26.6573C96.9484 26.6238 97.6185 26.7861 98.2042 27.1249V28.1956C97.6315 27.8559 96.981 27.6714 96.3162 27.6602C96.0416 27.6444 95.7672 27.6971 95.5178 27.8137C95.4364 27.8509 95.3671 27.9105 95.3181 27.9857C95.2691 28.0609 95.2424 28.1485 95.241 28.2384C95.241 28.4026 95.351 28.5418 95.571 28.656C95.5994 28.6703 95.7662 28.7238 96.0714 28.8166L96.6782 28.9451C97.8706 29.2092 98.4703 29.7624 98.4703 30.6047C98.4725 30.8362 98.4156 31.0645 98.305 31.2676C98.1944 31.4707 98.0338 31.6418 97.8386 31.7646C97.346 32.0765 96.7699 32.2285 96.1885 32.2001Z" fill="white"/>
<path d="M28.6667 2.7767L26.4381 21.5999L13.4639 4.50055C13.3743 4.38142 13.2719 4.27252 13.1587 4.17577L13.5384 0.963619C13.5705 0.697697 13.6984 0.452813 13.8978 0.275255C14.0973 0.0976971 14.3545 -0.000233265 14.6208 -2.57823e-05C14.6645 -0.00357213 14.7084 -0.00357214 14.7521 -2.57823e-05L27.7121 1.55608C27.9995 1.59093 28.2614 1.73902 28.4404 1.96785C28.6194 2.19669 28.7008 2.48758 28.6667 2.7767Z" fill="url(#paint0_linear_1_3418)"/>
<path d="M25.6679 24.7515L24.1313 25.9435L23.5102 26.4111L22.8999 26.8751L22.4421 27.232L21.8778 27.6602L21.8104 27.7102C21.5099 27.9339 21.2225 28.1552 20.9481 28.3741L20.8842 28.424C18.7372 30.1122 17.3674 31.5005 16.537 32.6569C16.2017 33.1087 15.9228 33.6001 15.7066 34.1202C14.7307 36.5615 16.5476 37.6893 17.158 38.5851C18.1587 40.077 17.9068 42.5718 16.0437 42.9465C13.9144 43.3784 12.495 41.2441 14.0032 37.7964C14.4738 36.6962 14.5268 35.4606 14.1522 34.3237C14.0654 34.0251 13.9612 33.7319 13.8399 33.4457C13.7654 33.2708 13.6838 33.0888 13.5986 32.9175C13.5134 32.7462 13.4283 32.5891 13.336 32.4249C13.1231 32.0359 12.8853 31.6469 12.6263 31.2614C12.5269 31.108 12.424 30.9581 12.3211 30.8046C11.7497 29.9623 11.1322 29.1236 10.5467 28.3062L10.5289 28.2813L0.223403 14.6653C0.0483234 14.4337 -0.0283243 14.1417 0.010257 13.8534C0.0488383 13.5651 0.199502 13.3039 0.42923 13.127L10.8022 5.16448C10.9939 5.01729 11.2282 4.93708 11.4694 4.93606C11.6482 4.93483 11.8243 4.98034 11.9804 5.06811C12.1191 5.14063 12.2403 5.24298 12.3353 5.36792L12.463 5.53566L12.9243 6.14597L25.8737 23.1989C25.9622 23.3142 26.027 23.446 26.0646 23.5866C26.1021 23.7273 26.1116 23.874 26.0924 24.0183C26.0733 24.1627 26.0259 24.3018 25.9531 24.4276C25.8802 24.5534 25.7833 24.6635 25.6679 24.7515Z" fill="url(#paint1_linear_1_3418)"/>
<path d="M20.9376 28.374C21.2096 28.1575 21.4971 27.9362 21.7999 27.7101L20.9376 28.374Z" fill="url(#paint2_linear_1_3418)"/>
<path d="M21.878 27.6602L22.4422 27.2283C22.4003 27.2699 22.3552 27.3081 22.3074 27.3425L21.878 27.6602Z" fill="url(#paint3_linear_1_3418)"/>
<path d="M21.878 27.6602L22.3074 27.3425C22.3552 27.3081 22.4003 27.2699 22.4422 27.2283L21.878 27.6602Z" fill="white"/>
<path d="M22.4422 27.2283C22.4003 27.2699 22.3552 27.3081 22.3074 27.3425L21.878 27.6602L22.4422 27.2283Z" fill="url(#paint4_linear_1_3418)"/>
</g>
<defs>
<linearGradient id="paint0_linear_1_3418" x1="19.4364" y1="11.2032" x2="29.4031" y2="7.18131" gradientUnits="userSpaceOnUse">
<stop stop-color="#D22A82"/>
<stop offset="1" stop-color="#EB4947"/>
</linearGradient>
<linearGradient id="paint1_linear_1_3418" x1="-0.000167503" y1="23.9698" x2="26.0973" y2="23.9698" gradientUnits="userSpaceOnUse">
<stop stop-color="#D22A82"/>
<stop offset="1" stop-color="#EB4947"/>
</linearGradient>
<linearGradient id="paint2_linear_1_3418" x1="20.7388" y1="27.9314" x2="21.5944" y2="28.0761" gradientUnits="userSpaceOnUse">
<stop stop-color="#D22A82"/>
<stop offset="1" stop-color="#EB4947"/>
</linearGradient>
<linearGradient id="paint3_linear_1_3418" x1="21.7396" y1="27.3711" x2="22.3005" y2="27.4664" gradientUnits="userSpaceOnUse">
<stop stop-color="#D22A82"/>
<stop offset="1" stop-color="#EB4947"/>
</linearGradient>
<linearGradient id="paint4_linear_1_3418" x1="21.005" y1="27.2426" x2="22.2936" y2="27.465" gradientUnits="userSpaceOnUse">
<stop stop-color="#D22A82"/>
<stop offset="1" stop-color="#EB4947"/>
</linearGradient>
<clipPath id="clip0_1_3418">
<rect width="100" height="43" fill="white"/>
</clipPath>
</defs>
</svg>
