<svg width="115" height="25" viewBox="0 0 115 25" fill="none" xmlns="http://www.w3.org/2000/svg">
<path d="M44.9909 7.96337C45.6964 8.38531 46.2933 8.96547 46.6731 9.75661C47.1074 10.5477 47.3245 11.4972 47.3245 12.5519C47.3245 13.6068 47.1074 14.5035 46.6189 15.2946C46.1848 16.0857 45.5335 16.666 44.7194 17.035C43.9054 17.457 42.9284 17.668 41.8974 17.668C41.3004 17.668 40.7576 17.5624 40.215 17.3516C39.6722 17.1934 39.1839 16.8768 38.8039 16.5076V21.9929H35.6562V7.54142H38.3697L38.6411 8.70176C39.835 7.75239 41.1376 7.27771 42.4943 7.27771C43.4169 7.27771 44.2852 7.48867 44.9909 7.96337ZM43.2542 14.5035C43.7969 14.0289 44.0681 13.3958 44.0681 12.6047C44.0681 11.8136 43.7969 11.1807 43.3084 10.6532C42.8199 10.1258 42.1687 9.91484 41.4633 9.91484C40.8662 9.91484 40.3235 10.0203 39.8893 10.284C39.4551 10.495 39.1296 10.8642 38.8583 11.3389V13.7123C39.021 14.1871 39.3466 14.5561 39.7266 14.8199C40.1608 15.0837 40.6491 15.2419 41.2462 15.2419C42.0601 15.2419 42.7115 14.9781 43.2542 14.5035Z" fill="white"/>
<path d="M49.1693 9.80831C49.6579 9.06991 50.309 8.43701 51.1773 8.01506C52.0457 7.59313 53.0227 7.32941 54.1081 7.32941C55.1935 7.32941 56.1703 7.54038 57.0386 8.01506C57.8528 8.43701 58.504 9.06991 58.9924 9.86105C59.4808 10.6522 59.6979 11.4961 59.6979 12.4982C59.6979 13.5004 59.4808 14.3442 58.9924 15.1353C58.504 15.9264 57.907 16.5593 57.0386 16.9813C56.2245 17.4033 55.1935 17.667 54.1081 17.667C53.0227 17.667 52.0457 17.456 51.1773 17.0341C50.309 16.6121 49.6579 16.0319 49.1693 15.2408C48.7352 14.4496 48.4639 13.553 48.4639 12.4982C48.4639 11.4961 48.7352 10.5994 49.1693 9.80831ZM52.3713 14.3968C52.8055 14.9243 53.4025 15.1353 54.1081 15.1353C54.8135 15.1353 55.4106 14.8717 55.8447 14.3968C56.2789 13.9222 56.496 13.2366 56.496 12.4982C56.496 11.7071 56.2789 11.0741 55.8447 10.5994C55.3562 10.072 54.8135 9.80831 54.0538 9.80831C53.3483 9.80831 52.8055 10.072 52.3171 10.5467C51.883 11.0741 51.6659 11.7071 51.6659 12.4982C51.6659 13.2366 51.883 13.8695 52.3713 14.3968Z" fill="white"/>
<path d="M64.8 0.0515137V17.4039H61.6523V0.0515137H64.8Z" fill="white"/>
<path d="M77.716 7.8045L71.312 22.045H68.273L70.6608 16.9291L66.1021 7.8045H69.6839L72.2889 13.5007L74.894 7.8045H77.716Z" fill="white"/>
<path d="M89.7638 7.80415V17.4033C89.7638 18.2999 89.4924 19.1438 88.9497 19.8822C88.407 20.6206 87.7015 21.2008 86.7788 21.6228C85.8562 22.0447 84.8794 22.2556 83.794 22.2556C82.9799 22.2556 82.2744 22.1502 81.6774 21.992C81.0803 21.781 80.592 21.57 80.212 21.359C79.7779 21.0952 79.3439 20.7788 78.8553 20.357L80.7006 18.2471C81.1347 18.6691 81.6232 18.9856 82.0573 19.1966C82.4915 19.4075 83.0886 19.5657 83.7398 19.5657C84.5537 19.5657 85.205 19.3548 85.7477 18.9856C86.2904 18.6163 86.5618 18.0363 86.5618 17.3505V15.9792C86.2362 16.4539 85.802 16.8759 85.1508 17.1923C84.4995 17.5089 83.7398 17.6671 82.8715 17.6671C82.003 17.6671 81.1347 17.4561 80.3749 16.9813C79.6152 16.5594 79.0181 15.9264 78.5297 15.1354C78.0956 14.3442 77.8242 13.5004 77.8242 12.551C77.8242 11.6016 78.0413 10.705 78.5297 9.91385C79.0181 9.12273 79.6152 8.48981 80.4291 8.01512C81.189 7.54044 82.003 7.32947 82.8715 7.32947C83.6854 7.32947 84.391 7.43495 85.0422 7.64592C85.6934 7.85689 86.182 8.17336 86.5076 8.54255L86.8331 7.80415H89.7638ZM86.5618 13.7114V11.3379C86.3447 10.8632 86.0191 10.494 85.5306 10.2303C85.0422 9.9666 84.4995 9.80837 83.8483 9.80837C83.0886 9.80837 82.4372 10.0721 81.8945 10.5468C81.3518 11.0214 81.0803 11.6544 81.0803 12.4455C81.0803 13.1839 81.3518 13.8696 81.8945 14.3969C82.4372 14.9244 83.0886 15.1882 83.8483 15.1882C85.0965 15.1354 86.0191 14.6608 86.5618 13.7114Z" fill="white"/>
<path d="M92.3696 9.80941C92.858 9.01828 93.5093 8.4381 94.3776 7.96343C95.2459 7.54148 96.2228 7.27777 97.3082 7.27777C98.3937 7.27777 99.3706 7.48873 100.239 7.96343C101.053 8.38537 101.704 9.01828 102.193 9.80941C102.627 10.6006 102.898 11.4444 102.898 12.4465C102.898 13.4486 102.681 14.2926 102.193 15.0837C101.759 15.8748 101.107 16.5078 100.239 16.9297C99.4248 17.3516 98.3937 17.6153 97.3082 17.6153C96.2228 17.6153 95.2459 17.4043 94.3776 16.9825C93.5093 16.5605 92.858 15.9803 92.3696 15.1893C91.8812 14.398 91.6641 13.5014 91.6641 12.3938C91.6641 11.4972 91.8812 10.6006 92.3696 9.80941ZM95.5174 14.398C95.9516 14.9254 96.5484 15.1365 97.254 15.1365C97.9596 15.1365 98.5564 14.8726 98.9906 14.398C99.4248 13.9234 99.6419 13.2376 99.6419 12.4993C99.6419 11.7081 99.4248 11.0752 98.9906 10.6006C98.5564 10.1259 97.9596 9.86216 97.254 9.86216C96.5484 9.86216 96.0058 10.1259 95.5174 10.6006C95.0288 11.0752 94.8118 11.7609 94.8118 12.4993C94.8662 13.2376 95.0832 13.8706 95.5174 14.398Z" fill="white"/>
<path d="M114.024 8.1206C114.675 8.64803 114.946 9.33368 115 10.1776V17.4033H111.798V11.3379C111.744 10.3885 111.256 9.91385 110.333 9.91385C109.627 9.91385 109.031 10.2303 108.596 10.916C108.162 11.6016 107.945 12.4455 107.945 13.4476V17.4033H104.797V7.80415H107.674L107.891 9.33368C108.271 8.70078 108.759 8.2261 109.41 7.85689C110.062 7.4877 110.822 7.32947 111.69 7.32947C112.612 7.32947 113.426 7.59319 114.024 8.1206Z" fill="white"/>
<path d="M22.1968 7.64707C21.6541 7.33061 20.9485 7.33061 20.3517 7.64707L16.1184 10.0732L13.2421 11.6555L9.00897 14.0817C8.46626 14.3981 7.76074 14.3981 7.16376 14.0817L3.79897 12.1829C3.25625 11.8664 2.87635 11.2863 2.87635 10.6534V6.90866C2.87635 6.27576 3.20199 5.69559 3.79897 5.37913L7.10948 3.53314C7.6522 3.21669 8.35772 3.21669 8.9547 3.53314L12.2652 5.37913C12.8079 5.69559 13.1879 6.27576 13.1879 6.90866V9.33484L16.0641 7.69981V5.27365C16.0641 4.64073 15.7387 4.06057 15.1416 3.7441L9.00897 0.263099C8.46626 -0.0533572 7.76074 -0.0533572 7.16376 0.263099L0.922605 3.7441C0.325625 4.06057 0 4.64073 0 5.27365V12.2884C0 12.9213 0.325625 13.5015 0.922605 13.818L7.16376 17.299C7.70645 17.6154 8.41199 17.6154 9.00897 17.299L13.2421 14.9255L16.1184 13.2905L20.3517 10.9171C20.8943 10.6007 21.5998 10.6007 22.1968 10.9171L25.5073 12.7631C26.05 13.0795 26.43 13.6597 26.43 14.2927V18.0374C26.43 18.6703 26.1044 19.2505 25.5073 19.5669L22.1968 21.4656C21.6541 21.7821 20.9485 21.7821 20.3517 21.4656L17.0411 19.6197C16.4984 19.3033 16.1184 18.723 16.1184 18.0901V15.664L13.2421 17.299V19.7251C13.2421 20.3579 13.5677 20.9382 14.1647 21.2547L20.4059 24.7356C20.9485 25.0521 21.6541 25.0521 22.251 24.7356L28.4923 21.2547C29.0349 20.9382 29.4149 20.3579 29.4149 19.7251V12.7103C29.4149 12.0774 29.0891 11.4973 28.4923 11.1809L22.1968 7.64707Z" fill="#8247E5"/>
</svg>
