<svg width="13" height="13" viewBox="0 0 13 13" fill="none" xmlns="http://www.w3.org/2000/svg">
<path d="M5.97814 7.47794L1.47814 7.47794C1.06393 7.47794 0.728141 7.14215 0.728141 6.72794C0.728141 6.31372 1.06393 5.97794 1.47814 5.97794L5.97814 5.97794L5.97814 1.47794C5.97814 1.06372 6.31393 0.727936 6.72814 0.727936C7.14235 0.727936 7.47814 1.06372 7.47814 1.47794L7.47814 5.97794L11.9781 5.97794C12.3924 5.97794 12.7281 6.31372 12.7281 6.72794C12.7281 7.14215 12.3924 7.47794 11.9781 7.47794H7.47814L7.47814 11.9779C7.47814 12.3921 7.14235 12.7279 6.72814 12.7279C6.31393 12.7279 5.97814 12.3921 5.97814 11.9779L5.97814 7.47794Z" fill="#C2F051"/>
</svg>
