<svg width="75" height="25" viewBox="0 0 75 25" fill="none" xmlns="http://www.w3.org/2000/svg">
<path d="M7.69611 1.78279H10.3793L17.8874 19.006H14.3426L12.7179 15.0651H5.1606L3.58514 19.006H0.114197L7.69611 1.78279ZM11.6348 12.4378L8.95156 5.43177L6.21912 12.4378H11.6348Z" fill="white"/>
<path d="M19.8269 7.32925H22.6332V9.20239H22.6825C22.9615 8.61856 23.3882 8.11581 23.9625 7.69415C24.5369 7.25627 25.3165 7.03733 26.3011 7.03733C27.0888 7.03733 27.7535 7.16707 28.2951 7.42655C28.853 7.68604 29.3043 8.02661 29.649 8.44827C29.9936 8.86993 30.2398 9.35646 30.3875 9.90787C30.5352 10.4593 30.609 11.035 30.609 11.6351V19.006H27.655V13.0946C27.655 12.7703 27.6386 12.4135 27.6058 12.0243C27.573 11.6188 27.4827 11.2458 27.335 10.9053C27.2037 10.5485 26.9904 10.2565 26.695 10.0295C26.3996 9.78623 25.9975 9.6646 25.4888 9.6646C24.9964 9.6646 24.578 9.74569 24.2333 9.90787C23.9051 10.07 23.6261 10.289 23.3964 10.5647C23.183 10.8404 23.0271 11.1566 22.9286 11.5134C22.8302 11.8702 22.7809 12.2432 22.7809 12.6324V19.006H19.8269V7.32925Z" fill="white"/>
<path d="M41.6208 17.4005H41.5469C41.1202 18.0654 40.5787 18.5519 39.9222 18.86C39.2658 19.152 38.5437 19.2979 37.756 19.2979C37.2144 19.2979 36.681 19.2249 36.1559 19.079C35.6471 18.933 35.1876 18.7141 34.7773 18.4222C34.3835 18.1302 34.0635 17.7654 33.8173 17.3275C33.5711 16.8896 33.4481 16.3787 33.4481 15.7949C33.4481 15.1624 33.5629 14.6272 33.7927 14.1893C34.0224 13.7352 34.326 13.3622 34.7035 13.0703C35.0974 12.7622 35.5487 12.5189 36.0574 12.3405C36.5662 12.1621 37.0913 12.0324 37.6329 11.9513C38.1909 11.854 38.7488 11.7972 39.3068 11.781C39.8648 11.7486 40.3899 11.7324 40.8823 11.7324H41.6208V11.4161C41.6208 10.6863 41.3664 10.143 40.8576 9.78623C40.3489 9.41323 39.7007 9.22672 38.9129 9.22672C38.2893 9.22672 37.7067 9.34025 37.1652 9.56729C36.6236 9.77812 36.1559 10.07 35.762 10.4431L34.2112 8.91048C34.8676 8.24555 35.6307 7.76713 36.5005 7.47521C37.3867 7.18329 38.2975 7.03733 39.233 7.03733C40.0699 7.03733 40.7756 7.13464 41.35 7.32925C41.9244 7.50764 42.4003 7.7428 42.7777 8.03472C43.1552 8.32664 43.4424 8.66721 43.6393 9.05644C43.8527 9.42944 44.0004 9.81056 44.0824 10.1998C44.1809 10.589 44.2383 10.9701 44.2547 11.3431C44.2712 11.6999 44.2794 12.0162 44.2794 12.2919V19.006H41.6208V17.4005ZM41.4484 13.7758H40.833C40.4228 13.7758 39.9632 13.792 39.4545 13.8244C38.9458 13.8569 38.4616 13.938 38.0021 14.0677C37.559 14.1812 37.1816 14.3596 36.8698 14.6029C36.5579 14.8299 36.402 15.1543 36.402 15.576C36.402 15.8517 36.4595 16.0868 36.5744 16.2814C36.7056 16.4598 36.8698 16.6139 37.0667 16.7436C37.2636 16.8734 37.4852 16.9707 37.7313 17.0356C37.9775 17.0842 38.2237 17.1085 38.4698 17.1085C39.4873 17.1085 40.234 16.8734 40.71 16.4031C41.2023 15.9165 41.4484 15.2597 41.4484 14.4326V13.7758Z" fill="white"/>
<path d="M47.7803 0.615112H50.7343V19.006H47.7803V0.615112Z" fill="white"/>
<path d="M52.7991 7.32925H56.0485L59.3471 15.43H59.3964L62.3503 7.32925H65.4274L59.8394 21.5116C59.6261 22.063 59.3881 22.5415 59.1256 22.9469C58.8794 23.3686 58.584 23.7173 58.2394 23.993C57.8947 24.2849 57.4845 24.4957 57.0085 24.6254C56.549 24.7714 55.9911 24.8444 55.3346 24.8444C54.5633 24.8444 53.8084 24.7471 53.0699 24.5525L53.4391 21.9252C53.6689 22.0063 53.9068 22.0712 54.153 22.1198C54.4156 22.1847 54.6782 22.2171 54.9407 22.2171C55.3018 22.2171 55.6054 22.1847 55.8516 22.1198C56.0977 22.0549 56.3029 21.9495 56.467 21.8036C56.6475 21.6738 56.7952 21.4954 56.9101 21.2684C57.0249 21.0575 57.148 20.7981 57.2793 20.4899L57.8455 19.1033L52.7991 7.32925Z" fill="white"/>
<path d="M66.0592 9.81056V7.32925H68.4963V3.94785H71.4503V7.32925H74.6997V9.81056H71.4503V14.9191C71.4503 15.503 71.5569 15.9652 71.7703 16.3058C72 16.6463 72.4431 16.8166 73.0996 16.8166C73.3621 16.8166 73.6493 16.7923 73.9612 16.7436C74.273 16.6788 74.5191 16.5815 74.6997 16.4517V18.9087C74.3878 19.0547 74.0022 19.152 73.5427 19.2006C73.0996 19.2655 72.7057 19.2979 72.3611 19.2979C71.5733 19.2979 70.9251 19.2087 70.4164 19.0303C69.924 18.8682 69.5302 18.6168 69.2348 18.2762C68.9558 17.9194 68.7588 17.4815 68.644 16.9626C68.5455 16.4436 68.4963 15.8436 68.4963 15.1624V9.81056H66.0592Z" fill="white"/>
</svg>
