<svg width="142" height="30" viewBox="0 0 142 30" fill="none" xmlns="http://www.w3.org/2000/svg">
<path d="M54.625 19.9985H44.5972C44.3406 19.9985 44.0627 19.9709 43.7633 19.9156C43.4711 19.8535 43.1789 19.7602 42.8867 19.6359C42.6016 19.5116 42.3272 19.3527 42.0635 19.1593C41.7998 18.9591 41.5646 18.7208 41.3579 18.4445C41.1583 18.1614 40.998 17.8368 40.8768 17.4708C40.7557 17.0978 40.6951 16.68 40.6951 16.2173V8.92408C40.6951 8.67549 40.7236 8.40959 40.7806 8.12644C40.8448 7.83636 40.9409 7.55321 41.0693 7.27695C41.1976 6.99379 41.3651 6.72444 41.5717 6.4689C41.7784 6.21337 42.0243 5.98891 42.3094 5.79553C42.6016 5.59524 42.9365 5.4364 43.3143 5.31899C43.6921 5.20158 44.1197 5.14288 44.5972 5.14288H54.625V7.83636H44.5972C44.2337 7.83636 43.9558 7.9296 43.7633 8.11607C43.5709 8.30255 43.4746 8.5788 43.4746 8.94488V16.2173C43.4746 16.5625 43.5709 16.8319 43.7633 17.0253C43.9629 17.2117 44.2409 17.305 44.5972 17.305H54.625V19.9985ZM66.9941 11.4933H60.74C60.3623 11.4933 60.0772 11.5865 59.8847 11.773C59.6924 11.9526 59.5962 12.2185 59.5962 12.5707V19.9985H56.8166V12.5707C56.8166 12.1079 56.8771 11.6936 56.9983 11.3276C57.1194 10.9615 57.2799 10.6403 57.4794 10.3641C57.6861 10.081 57.9212 9.84266 58.1849 9.64926C58.4487 9.44899 58.723 9.28667 59.0081 9.16238C59.3004 9.0381 59.5926 8.94827 59.8847 8.893C60.1841 8.83086 60.4621 8.79979 60.7186 8.79979H66.9941V11.4933ZM81.5763 21.0759C81.5763 21.5387 81.515 21.953 81.3946 22.319C81.2731 22.692 81.1128 23.0166 80.9136 23.2929C80.7134 23.576 80.4822 23.8143 80.2179 24.0076C79.9546 24.208 79.6767 24.3702 79.3842 24.4946C79.0995 24.6189 78.811 24.7086 78.5185 24.7639C78.226 24.826 77.9481 24.8572 77.6848 24.8572H72.6708V22.1637H77.6848C78.055 22.1637 78.3329 22.0704 78.5185 21.8839C78.7041 21.6975 78.7964 21.4281 78.7964 21.0759V8.79979H81.5763V21.0759ZM77.6848 19.9985H72.6708C72.2717 19.9985 71.8441 19.9328 71.3879 19.8017C70.9389 19.6704 70.5184 19.4563 70.1264 19.1593C69.7344 18.8555 69.4102 18.4652 69.1536 17.9887C68.897 17.5053 68.7687 16.9148 68.7687 16.2173V8.79979H71.5483V16.2173C71.5483 16.5695 71.6445 16.8388 71.8369 17.0253C72.0294 17.2117 72.3144 17.305 72.6922 17.305H77.6848V19.9985ZM96.971 16.2173C96.971 16.68 96.9098 17.0978 96.7893 17.4708C96.6679 17.8368 96.5075 18.1614 96.3074 18.4445C96.1082 18.7208 95.8769 18.9591 95.6127 19.1593C95.3493 19.3527 95.0714 19.5116 94.779 19.6359C94.4943 19.7602 94.2057 19.8535 93.9132 19.9156C93.6208 19.9709 93.3429 19.9985 93.0796 19.9985H88.0649V17.305H93.0796C93.4498 17.305 93.7277 17.2117 93.9132 17.0253C94.0988 16.8388 94.1911 16.5695 94.1911 16.2173V12.5914C94.1911 12.2185 94.0949 11.9422 93.9026 11.7627C93.717 11.583 93.443 11.4933 93.0796 11.4933H88.0863C87.7093 11.4933 87.4236 11.5865 87.2312 11.773C87.0389 11.9526 86.9427 12.2185 86.9427 12.5707V23.5H84.1628V12.5707C84.1628 12.1079 84.224 11.6936 84.3445 11.3276C84.4659 10.9615 84.6263 10.6403 84.8264 10.3641C85.0324 10.081 85.2675 9.84266 85.5318 9.64926C85.7951 9.44899 86.0701 9.28667 86.3548 9.16238C86.6473 9.0381 86.9388 8.94827 87.2312 8.893C87.5305 8.83086 87.8084 8.79979 88.0649 8.79979H93.0796C93.5567 8.79979 93.9842 8.85854 94.3622 8.97595C94.7401 9.09337 95.0714 9.24872 95.3561 9.44212C95.6486 9.63551 95.8944 9.85989 96.0936 10.1154C96.3006 10.371 96.4677 10.6403 96.596 10.9235C96.7252 11.1998 96.8175 11.4795 96.8748 11.7627C96.939 12.0458 96.971 12.3152 96.971 12.5707V16.2173ZM109.789 11.4933H104.936V19.9985H102.124V11.4933H98.5101V8.79979H102.124V5.14288H104.936V8.79979H109.789V11.4933ZM124.531 13.9278H115.754V11.2136H124.531V13.9278ZM125.782 19.9985H115.754C115.369 19.9985 114.948 19.9328 114.493 19.8017C114.036 19.6704 113.612 19.4563 113.221 19.1593C112.835 18.8555 112.512 18.4652 112.247 17.9887C111.991 17.5053 111.862 16.9148 111.862 16.2173V6.49998C111.862 6.31351 111.898 6.1374 111.969 5.97164C112.041 5.80589 112.137 5.66086 112.258 5.53655C112.386 5.41222 112.536 5.31554 112.707 5.24647C112.878 5.17741 113.063 5.14288 113.264 5.14288H125.782V7.83636H114.642V16.2173C114.642 16.5695 114.739 16.8388 114.931 17.0253C115.123 17.2117 115.405 17.305 115.775 17.305H125.782V19.9985ZM141.368 8.79979L136.376 14.0831L142 19.9985H138.173L134.474 16.0929L130.775 19.9985H126.937L132.549 14.0624L127.578 8.79979H131.384L134.452 12.0423L137.541 8.79979H141.368Z" fill="white"/>
<path fill-rule="evenodd" clip-rule="evenodd" d="M28.5104 15C28.5104 21.6589 22.8362 27.1429 15.7267 27.1429C8.61713 27.1429 2.94301 21.6589 2.94301 15C2.94301 8.34115 8.61713 2.85714 15.7267 2.85714C22.8362 2.85714 28.5104 8.34115 28.5104 15ZM31.4534 15C31.4534 23.2843 24.4123 30 15.7267 30C7.04108 30 0 23.2843 0 15C0 6.71573 7.04108 0 15.7267 0C24.4123 0 31.4534 6.71573 31.4534 15ZM20.601 9.82143C20.601 11.5549 19.6225 13.0665 18.1723 13.864L20.5025 22.9997C20.6461 23.5627 20.2072 24.1071 19.6098 24.1071H12.2224C11.6215 24.1071 11.182 23.5569 11.3317 22.9919L13.7154 13.9923C12.1286 13.2368 11.0363 11.6529 11.0363 9.82143C11.0363 7.25725 13.1774 5.17857 15.8187 5.17857C18.4599 5.17857 20.601 7.25725 20.601 9.82143ZM16.5689 11.6071C16.4165 11.6071 16.293 11.4872 16.293 11.3393V10.8177H15.2184V11.3393C15.2184 11.4872 15.0949 11.6071 14.9425 11.6071C14.7902 11.6071 14.6666 11.4872 14.6666 11.3393V10.8177H14.0712C13.9189 10.8177 13.7953 10.6977 13.7953 10.5498C13.7953 10.4019 13.9189 10.282 14.0712 10.282H14.6666V9.43609H14.0712C13.9189 9.43609 13.7953 9.31617 13.7953 9.16823C13.7953 9.0203 13.9189 8.90038 14.0712 8.90038H14.6666V8.125C14.6666 7.97707 14.7902 7.85714 14.9425 7.85714C15.0949 7.85714 15.2184 7.97707 15.2184 8.125V8.90038H16.293V8.125C16.293 7.97707 16.4165 7.85714 16.5689 7.85714C16.7213 7.85714 16.8448 7.97707 16.8448 8.125V8.90038H17.3821C17.5345 8.90038 17.658 9.0203 17.658 9.16823C17.658 9.31617 17.5345 9.43609 17.3821 9.43609H16.8448V10.282H17.3821C17.5345 10.282 17.658 10.4019 17.658 10.5498C17.658 10.6977 17.5345 10.8177 17.3821 10.8177H16.8448V11.3393C16.8448 11.4872 16.7213 11.6071 16.5689 11.6071ZM15.2184 9.43609V10.282H16.293V9.43609H15.2184Z" fill="url(#paint0_linear_1_3484)"/>
<defs>
<linearGradient id="paint0_linear_1_3484" x1="7.35752" y1="27.4107" x2="20.4114" y2="0.994224" gradientUnits="userSpaceOnUse">
<stop stop-color="#FF7940"/>
<stop offset="1" stop-color="#FF5DDB"/>
</linearGradient>
</defs>
</svg>
