<svg width="36" height="30" viewBox="0 0 36 30" fill="none" xmlns="http://www.w3.org/2000/svg">
<path d="M17.5543 20.1911L35.0353 29.9981H0.07335L17.5543 20.1911Z" fill="#22272C"/>
<path d="M17.5103 0L35.0206 30L17.5103 20L17.5103 0Z" fill="url(#paint0_linear_204_226)"/>
<path d="M0 30L17.5103 0L17.5103 20L0 30Z" fill="url(#paint1_linear_204_226)"/>
<path d="M17.5103 0L18.497 13.1859H16.5255L17.5103 0Z" fill="black"/>
<path d="M34.9587 29.9605L22.8525 24.3553L23.8177 22.6548L34.9587 29.9605Z" fill="black"/>
<path d="M0.0570622 29.9584L12.1103 24.2425L11.1292 22.551L0.0570622 29.9584Z" fill="black"/>
<path d="M17.5574 10.3928L25.9305 24.7381L17.5575 19.9564L17.5574 10.3928Z" fill="url(#paint2_linear_204_226)"/>
<path d="M9.18446 24.7381L17.5574 10.3928L17.5575 19.9564L9.18446 24.7381Z" fill="url(#paint3_linear_204_226)"/>
<path d="M17.5575 19.9564L25.9305 24.7381L9.18446 24.7381L17.5575 19.9564Z" fill="url(#paint4_linear_204_226)"/>
<defs>
<linearGradient id="paint0_linear_204_226" x1="101730" y1="77868.4" x2="104547" y2="75850.3" gradientUnits="userSpaceOnUse">
<stop stop-color="#2A3035"/>
<stop offset="1" stop-color="#35404B"/>
</linearGradient>
<linearGradient id="paint1_linear_204_226" x1="-442477" y1="-218340" x2="-442477" y2="-215050" gradientUnits="userSpaceOnUse">
<stop stop-color="#808D9C"/>
<stop offset="1" stop-color="#6E7379"/>
</linearGradient>
<linearGradient id="paint2_linear_204_226" x1="33.3711" y1="23.9497" x2="30.0434" y2="4.48034" gradientUnits="userSpaceOnUse">
<stop stop-color="#BC3176"/>
<stop offset="1" stop-color="#96245D"/>
</linearGradient>
<linearGradient id="paint3_linear_204_226" x1="32.1725" y1="2.06296" x2="0.808321" y2="1.84346" gradientUnits="userSpaceOnUse">
<stop stop-color="#D25292"/>
<stop offset="1" stop-color="#C471ED"/>
</linearGradient>
<linearGradient id="paint4_linear_204_226" x1="29.5042" y1="1.78887" x2="20.8935" y2="31.9568" gradientUnits="userSpaceOnUse">
<stop stop-color="#BC025F"/>
<stop offset="1" stop-color="#800140"/>
</linearGradient>
</defs>
</svg>
